<svg width="18" height="18" viewBox="0 0 18 18" fill="none" xmlns="http://www.w3.org/2000/svg">
<path d="M10.1582 7.84197C9.54389 7.2279 8.71084 6.88293 7.84222 6.88293C6.97361 6.88293 6.14055 7.2279 5.52622 7.84197L3.20947 10.158C2.59513 10.7723 2.25 11.6055 2.25 12.4743C2.25 13.3432 2.59513 14.1764 3.20947 14.7907C3.82381 15.4051 4.65704 15.7502 5.52585 15.7502C6.39466 15.7502 7.22788 15.4051 7.84222 14.7907L9.00022 13.6327" stroke="#0C1927" stroke-width="1.5" stroke-linecap="round" stroke-linejoin="round"/>
<path d="M7.84229 10.158C8.45662 10.7721 9.28967 11.117 10.1583 11.117C11.0269 11.117 11.86 10.7721 12.4743 10.158L14.791 7.84198C15.4054 7.22764 15.7505 6.39441 15.7505 5.5256C15.7505 4.6568 15.4054 3.82357 14.791 3.20923C14.1767 2.59489 13.3435 2.24976 12.4747 2.24976C11.6059 2.24976 10.7726 2.59489 10.1583 3.20923L9.00028 4.36723" stroke="#0C1927" stroke-width="1.5" stroke-linecap="round" stroke-linejoin="round"/>
</svg>
