<svg width="16" height="18" viewBox="0 0 16 18" fill="none" xmlns="http://www.w3.org/2000/svg">
<path fill-rule="evenodd" clip-rule="evenodd" d="M15.75 5.0625V15.75C15.75 16.3467 15.5129 16.919 15.091 17.341C14.669 17.7629 14.0967 18 13.5 18H12.375V16.875H13.5C13.7984 16.875 14.0845 16.7565 14.2955 16.5455C14.5065 16.3345 14.625 16.0484 14.625 15.75V5.0625H12.375C11.9274 5.0625 11.4982 4.88471 11.1818 4.56824C10.8653 4.25178 10.6875 3.82255 10.6875 3.375V1.125H4.5C4.20163 1.125 3.91548 1.24353 3.7045 1.4545C3.49353 1.66548 3.375 1.95163 3.375 2.25V12.375H2.25V2.25C2.25 1.65326 2.48705 1.08097 2.90901 0.65901C3.33097 0.237053 3.90326 0 4.5 0L10.6875 0L15.75 5.0625ZM1.8 13.3313H0V17.8301H0.889875V16.3204H1.79325C2.11612 16.3204 2.39062 16.2563 2.61675 16.1257C2.84512 15.9941 3.0195 15.8164 3.13762 15.5925C3.26024 15.3576 3.32248 15.0958 3.31875 14.8309C3.31875 14.5496 3.25912 14.2954 3.141 14.0692C3.02351 13.8445 2.84387 13.6582 2.6235 13.5326C2.3985 13.3976 2.12512 13.3313 1.8 13.3313ZM2.41313 14.8309C2.41718 14.9791 2.38432 15.126 2.3175 15.2584C2.25755 15.3736 2.16424 15.4681 2.04975 15.5295C1.91879 15.5943 1.77393 15.626 1.62788 15.6217H0.8865V14.04H1.629C1.87425 14.04 2.06663 14.1075 2.205 14.2436C2.34337 14.3809 2.41313 14.5766 2.41313 14.8309ZM3.78225 13.3313V17.8301H5.42475C5.87587 17.8301 6.2505 17.7401 6.5475 17.5635C6.84805 17.3837 7.08275 17.1119 7.21688 16.7884C7.36312 16.4509 7.43738 16.0436 7.43738 15.5689C7.43738 15.0964 7.36425 14.6936 7.21688 14.3595C7.08433 14.0397 6.85188 13.7713 6.55425 13.5945C6.25725 13.419 5.88037 13.3313 5.42362 13.3313H3.78225ZM4.67212 14.0569H5.3055C5.5845 14.0569 5.81175 14.1131 5.99062 14.2279C6.17629 14.3493 6.31638 14.529 6.38888 14.7386C6.47775 14.9648 6.52163 15.2471 6.52163 15.5858C6.52511 15.8101 6.4994 16.034 6.44513 16.2518C6.40505 16.4235 6.32998 16.5851 6.22463 16.7265C6.12674 16.8527 5.99706 16.9505 5.84888 17.01C5.67525 17.075 5.49084 17.1063 5.3055 17.1022H4.67212V14.0569ZM8.883 16.0403V17.8301H7.99425V13.3313H10.8608V14.0659H8.883V15.3225H10.6897V16.0403H8.883Z" fill="#0C1927"/>
</svg>
